<svg width="34" height="34" viewBox="0 0 34 34" fill="none" xmlns="http://www.w3.org/2000/svg">
<g id="typcn:document-add">
<path id="Vector" d="M21.2501 17H18.4167V14.1667C18.4167 13.7909 18.2675 13.4306 18.0018 13.1649C17.7361 12.8993 17.3758 12.75 17.0001 12.75C16.6244 12.75 16.264 12.8993 15.9983 13.1649C15.7327 13.4306 15.5834 13.7909 15.5834 14.1667V17H12.7501C12.3744 17 12.014 17.1493 11.7483 17.4149C11.4827 17.6806 11.3334 18.0409 11.3334 18.4167C11.3334 18.7924 11.4827 19.1527 11.7483 19.4184C12.014 19.6841 12.3744 19.8333 12.7501 19.8333H15.5834V22.6667C15.5834 23.0424 15.7327 23.4027 15.9983 23.6684C16.264 23.9341 16.6244 24.0833 17.0001 24.0833C17.3758 24.0833 17.7361 23.9341 18.0018 23.6684C18.2675 23.4027 18.4167 23.0424 18.4167 22.6667V19.8333H21.2501C21.6258 19.8333 21.9861 19.6841 22.2518 19.4184C22.5175 19.1527 22.6667 18.7924 22.6667 18.4167C22.6667 18.0409 22.5175 17.6806 22.2518 17.4149C21.9861 17.1493 21.6258 17 21.2501 17ZM27.9183 10.3318L22.2517 4.66508C22.1203 4.53327 21.9642 4.42874 21.7923 4.3575C21.6204 4.28627 21.4362 4.24973 21.2501 4.25H9.91675C7.57358 4.25 5.66675 6.15683 5.66675 8.5V25.5C5.66675 27.8432 7.57358 29.75 9.91675 29.75H24.0834C26.4266 29.75 28.3334 27.8432 28.3334 25.5V11.3333C28.3337 11.1473 28.2972 10.963 28.2259 10.7911C28.1547 10.6192 28.0501 10.4631 27.9183 10.3318ZM24.9136 11.3333H23.3751C22.2035 11.3333 21.2501 10.3799 21.2501 9.20833V7.66983L24.9136 11.3333ZM24.0834 26.9167H9.91675C9.54102 26.9167 9.18069 26.7674 8.91501 26.5017C8.64934 26.2361 8.50008 25.8757 8.50008 25.5V8.5C8.50008 8.12428 8.64934 7.76394 8.91501 7.49827C9.18069 7.23259 9.54102 7.08333 9.91675 7.08333H19.8334V9.20833C19.8334 11.1619 21.4215 12.75 23.3751 12.75H25.5001V25.5C25.5001 25.8757 25.3508 26.2361 25.0852 26.5017C24.8195 26.7674 24.4591 26.9167 24.0834 26.9167Z" fill="#363062"/>
</g>
</svg>
