<svg width="13" height="13" viewBox="0 0 13 13" fill="none" xmlns="http://www.w3.org/2000/svg">
<g id="uil:exchange">
<path id="Vector" d="M9.74991 5.4166C9.74991 5.27295 9.69285 5.13517 9.59126 5.03359C9.48968 4.93201 9.3519 4.87494 9.20825 4.87494H2.93033L4.17616 3.63452C4.27816 3.53252 4.33546 3.39418 4.33546 3.24994C4.33546 3.10569 4.27816 2.96735 4.17616 2.86535C4.07417 2.76336 3.93583 2.70605 3.79158 2.70605C3.64733 2.70605 3.50899 2.76336 3.407 2.86535L1.24033 5.03202C1.16517 5.10819 1.11425 5.20492 1.09401 5.31C1.07377 5.41507 1.0851 5.52379 1.12658 5.62244C1.16722 5.72136 1.23622 5.80603 1.3249 5.8658C1.41359 5.92556 1.51797 5.95774 1.62491 5.95827H9.20825C9.3519 5.95827 9.48968 5.9012 9.59126 5.79962C9.69285 5.69804 9.74991 5.56026 9.74991 5.4166ZM11.8732 7.37744C11.8326 7.27852 11.7636 7.19384 11.6749 7.13408C11.5862 7.07431 11.4819 7.04214 11.3749 7.0416H3.79158C3.64792 7.0416 3.51015 7.09867 3.40856 7.20026C3.30698 7.30184 3.24991 7.43961 3.24991 7.58327C3.24991 7.72693 3.30698 7.86471 3.40856 7.96629C3.51015 8.06787 3.64792 8.12494 3.79158 8.12494H10.0695L8.82366 9.36536C8.77289 9.41571 8.7326 9.47562 8.7051 9.54163C8.6776 9.60763 8.66344 9.67843 8.66344 9.74994C8.66344 9.82144 8.6776 9.89224 8.7051 9.95825C8.7326 10.0243 8.77289 10.0842 8.82366 10.1345C8.87402 10.1853 8.93393 10.2256 8.99993 10.2531C9.06594 10.2806 9.13674 10.2947 9.20825 10.2947C9.27975 10.2947 9.35055 10.2806 9.41656 10.2531C9.48257 10.2256 9.54247 10.1853 9.59283 10.1345L11.7595 7.96785C11.8347 7.89168 11.8856 7.79496 11.9058 7.68988C11.9261 7.5848 11.9147 7.47608 11.8732 7.37744Z" fill="white"/>
</g>
</svg>
