<svg width="24" height="24" viewBox="0 0 24 24" fill="none" xmlns="http://www.w3.org/2000/svg">
<g clip-path="url(#clip0_372_65)">
<path fill-rule="evenodd" clip-rule="evenodd" d="M20.131 3.16C19.5684 2.59759 18.8055 2.28164 18.01 2.28164C17.2145 2.28164 16.4516 2.59759 15.889 3.16L15.182 3.868L20.132 8.818L20.838 8.111C21.1167 7.83242 21.3377 7.50168 21.4885 7.13767C21.6393 6.77366 21.7169 6.38351 21.7169 5.9895C21.7169 5.59549 21.6393 5.20534 21.4885 4.84133C21.3377 4.47732 21.1167 4.14658 20.838 3.868L20.131 3.16ZM18.717 10.232L13.767 5.282L4.67703 14.373C4.47811 14.572 4.33915 14.8228 4.27603 15.097L3.24703 19.552C3.20868 19.7174 3.21308 19.8898 3.2598 20.053C3.30653 20.2163 3.39404 20.3649 3.51408 20.4849C3.63413 20.605 3.78277 20.6925 3.94599 20.7392C4.10921 20.7859 4.28164 20.7903 4.44703 20.752L8.90303 19.724C9.17683 19.6607 9.42735 19.5218 9.62603 19.323L18.717 10.232Z" fill="#F8F8F8"/>
</g>
<defs>
<clipPath id="clip0_372_65">
<rect width="24" height="24" fill="white"/>
</clipPath>
</defs>
</svg>
