<svg width="11" height="11" viewBox="0 0 11 11" fill="none" xmlns="http://www.w3.org/2000/svg">
<g id="pajamas:remove-all" clip-path="url(#clip0_330_86)">
<path id="Vector" fill-rule="evenodd" clip-rule="evenodd" d="M3.95312 2.0625V1.03125H7.04688V2.0625H3.95312ZM2.92188 2.0625V0.6875C2.92188 0.505164 2.99431 0.330295 3.12324 0.201364C3.25217 0.0724328 3.42704 0 3.60938 0L7.39062 0C7.57296 0 7.74783 0.0724328 7.87676 0.201364C8.00569 0.330295 8.07812 0.505164 8.07812 0.6875V2.0625H9.79688C9.93363 2.0625 10.0648 2.11682 10.1615 2.21352C10.2582 2.31022 10.3125 2.44137 10.3125 2.57812C10.3125 2.71488 10.2582 2.84603 10.1615 2.94273C10.0648 3.03943 9.93363 3.09375 9.79688 3.09375H9.54594L9.03512 9.73019C9.00862 10.0756 8.8527 10.3983 8.59853 10.6337C8.34437 10.8692 8.0107 11 7.66425 11H3.33575C2.9893 11 2.65563 10.8692 2.40147 10.6337C2.1473 10.3983 1.99138 10.0756 1.96487 9.73019L1.45406 3.09375H1.20312C1.06637 3.09375 0.935222 3.03943 0.838523 2.94273C0.741825 2.84603 0.6875 2.71488 0.6875 2.57812C0.6875 2.44137 0.741825 2.31022 0.838523 2.21352C0.935222 2.11682 1.06637 2.0625 1.20312 2.0625H2.92188ZM2.48875 3.09375H8.51125L8.00663 9.65112C8.00004 9.73745 7.96113 9.81812 7.89766 9.87701C7.83419 9.93589 7.75083 9.96865 7.66425 9.96875H3.33575C3.24917 9.96865 3.16581 9.93589 3.10234 9.87701C3.03887 9.81812 2.99996 9.73745 2.99338 9.65112L2.48875 3.09375Z" fill="white"/>
</g>
<defs>
<clipPath id="clip0_330_86">
<rect width="11" height="11" fill="white"/>
</clipPath>
</defs>
</svg>
