<svg width="36" height="36" viewBox="0 0 36 36" fill="none" xmlns="http://www.w3.org/2000/svg">
<g id="noto-v1:man-student" clip-path="url(#clip0_324_176)">
<path id="Vector" d="M5.27625 33.2128V35.9944H29.7844V33.2128C29.7844 28.9463 23.7684 26.7806 17.6231 26.7891C11.5144 26.7975 5.27625 28.696 5.27625 33.2128Z" fill="#424242"/>
<path id="Vector_2" d="M17.5303 25.3828H14.9766V28.08C14.9766 29.3006 16.0172 30.2906 17.2997 30.2906H17.7638C19.0462 30.2906 20.0869 29.3006 20.0869 28.08V25.3828H17.5303Z" fill="#E49500"/>
<path id="Vector_3" d="M20.2978 36.0001H14.7628V26.9158L17.5303 30.2908L20.2978 26.9158V36.0001Z" fill="#424242"/>
<path id="Vector_4" d="M26.5978 14.7207C26.5978 14.7207 28.2544 15.0076 28.2544 16.7935C28.2544 18.3685 27.045 18.9901 25.8356 18.9901V14.7207H26.5978ZM8.51908 14.7207C8.51908 14.7207 6.86252 15.0076 6.86252 16.7935C6.86252 18.3685 8.07189 18.9901 9.28127 18.9901V14.7207H8.51908Z" fill="#E39400"/>
<path id="Vector_5" d="M17.5584 3.02881C10.4147 3.02881 8.54718 8.56662 8.54718 16.346C8.54718 24.4122 13.7306 26.4991 17.5584 26.4991C21.33 26.4991 26.5697 24.4741 26.5697 16.346C26.5725 8.56662 24.7022 3.02881 17.5584 3.02881Z" fill="#FAC01B"/>
<path id="Vector_6" d="M14.5913 17.0692C14.5913 17.8736 14.0541 18.5232 13.3875 18.5232C12.7238 18.5232 12.181 17.8707 12.181 17.0692C12.181 16.2648 12.721 15.6123 13.3875 15.6123C14.0541 15.6123 14.5913 16.262 14.5913 17.0692ZM20.5257 17.0692C20.5257 17.8736 21.0628 18.5232 21.7322 18.5232C22.396 18.5232 22.936 17.8707 22.936 17.0692C22.936 16.2648 22.396 15.6123 21.7322 15.6123C21.0628 15.6123 20.5257 16.262 20.5257 17.0692Z" fill="#444444"/>
<path id="Vector_7" d="M20.1684 21.9824H14.9541C14.6559 21.9824 14.5266 22.1821 14.7234 22.4859C14.9991 22.9077 16.0284 23.7177 17.5613 23.7177C19.0941 23.7177 20.1234 22.9077 20.3991 22.4859C20.5959 22.1821 20.4666 21.9824 20.1684 21.9824Z" fill="#513F35"/>
<path id="Vector_8" d="M18.8184 19.7662C18.374 19.8928 17.9128 19.9518 17.5584 19.9518C17.204 19.9518 16.7428 19.89 16.2984 19.7662C16.11 19.7128 16.034 19.8928 16.1015 20.0109C16.2422 20.2584 16.8103 20.759 17.5584 20.759C18.3065 20.759 18.8747 20.2584 19.0153 20.0109C19.0828 19.89 19.0097 19.71 18.8184 19.7662Z" fill="#E39400"/>
<path id="Vector_9" d="M17.775 2.01385C17.775 2.01385 17.6344 2.00823 17.5753 2.01104C17.5163 2.01104 17.3756 2.01385 17.3756 2.01385C9.66657 2.16292 7.34344 6.80073 7.34344 10.0154C7.34344 13.1401 7.34626 15.4379 7.34626 15.4379C7.34626 15.4379 7.47001 15.3114 7.69501 15.1342C7.93688 14.9457 8.20407 14.8417 8.20407 14.8417L8.59219 17.4517L11.16 12.0854C11.1769 12.0517 11.2106 12.032 11.2472 12.0376L12.7688 12.2064C14.2988 12.3751 15.8372 12.4595 17.3728 12.4623V12.4651C17.4403 12.4651 17.505 12.4623 17.5725 12.4623C17.64 12.4623 17.7047 12.4651 17.7722 12.4651V12.4595C19.3078 12.4539 20.8463 12.3723 22.3763 12.2035L23.8978 12.0348C23.9344 12.032 23.9681 12.0517 23.985 12.0826L26.5528 17.4489L26.9409 14.8389C26.9409 14.8389 27.2081 14.9457 27.45 15.1314C27.6778 15.3085 27.7988 15.4351 27.7988 15.4351C27.7988 15.4351 27.8016 13.1401 27.8016 10.0126C27.8072 6.80073 25.4841 2.16292 17.775 2.01385Z" fill="#6D4C41"/>
<path id="Vector_10" d="M17.5387 0L3.51562 2.59312L17.5753 0.005625L17.5387 0Z" fill="#262626"/>
<path id="Vector_11" d="M17.6175 0.0028125L17.6091 0L17.5753 0.005625L17.6175 0.0140625V0.0028125Z" fill="#424143"/>
<path id="Vector_12" d="M17.6962 0L31.7222 2.59312L17.6625 0.005625L17.6962 0Z" fill="#262626"/>
<path id="Vector_13" d="M31.7278 3.30764L31.7222 2.59326L17.6288 4.63514H17.6119L3.51563 2.59326L3.51001 3.30764L9.1547 4.29482L8.67095 5.6617C9.70595 6.11732 13.455 7.63045 17.6175 7.74014C21.78 7.62764 25.3969 6.11732 26.4319 5.6617L25.9481 4.29482L31.7278 3.30764Z" fill="#262626"/>
<path id="Vector_14" d="M17.6175 0.0028125L17.6287 0L17.6625 0.005625L17.6175 0.0140625V0.0028125Z" fill="#424143"/>
<path id="Vector_15" d="M17.6625 0.00537109L17.6175 0.0138086L17.5753 0.00537109L3.51562 2.59287L17.6091 4.63475L17.6175 4.63193L17.6287 4.63475L31.7222 2.59287L17.6625 0.00537109Z" fill="#424143"/>
<path id="Vector_16" d="M31.9781 12.9092C31.6941 12.9092 31.4663 13.1398 31.4663 13.4211V15.6232C31.4663 15.759 31.5202 15.8892 31.6162 15.9852C31.7122 16.0812 31.8424 16.1351 31.9781 16.1351C32.1139 16.1351 32.2441 16.0812 32.3401 15.9852C32.4361 15.8892 32.49 15.759 32.49 15.6232V13.4211C32.49 13.1398 32.2622 12.9092 31.9781 12.9092ZM30.9544 12.9092C30.6703 12.9092 30.4425 13.1398 30.4425 13.4211V15.6232C30.4425 15.759 30.4964 15.8892 30.5924 15.9852C30.6884 16.0812 30.8186 16.1351 30.9544 16.1351C31.0901 16.1351 31.2203 16.0812 31.3163 15.9852C31.4123 15.8892 31.4663 15.759 31.4663 15.6232V13.4211C31.4663 13.1398 31.2384 12.9092 30.9544 12.9092Z" fill="#FBC11B"/>
<path id="Vector_17" d="M31.2806 12.9092C30.9966 12.9092 30.7688 13.1398 30.7688 13.4211V15.6232C30.7688 15.759 30.8227 15.8892 30.9187 15.9852C31.0147 16.0812 31.1449 16.1351 31.2806 16.1351C31.4164 16.1351 31.5466 16.0812 31.6426 15.9852C31.7386 15.8892 31.7925 15.759 31.7925 15.6232V13.4211C31.7925 13.1398 31.5647 12.9092 31.2806 12.9092Z" fill="#E49500"/>
<path id="Vector_18" d="M31.6716 12.9092C31.3875 12.9092 31.1597 13.1398 31.1597 13.4211V15.6232C31.1597 15.9073 31.3903 16.1351 31.6716 16.1351C31.9528 16.1351 32.1834 15.9045 32.1834 15.6232V13.4211C32.1834 13.1398 31.9556 12.9092 31.6716 12.9092Z" fill="#E49500"/>
<path id="Vector_19" d="M31.4663 12.9092C31.1822 12.9092 30.9544 13.1398 30.9544 13.4211V16.0986C30.9544 16.2343 31.0083 16.3645 31.1043 16.4605C31.2003 16.5565 31.3305 16.6104 31.4663 16.6104C31.602 16.6104 31.7322 16.5565 31.8282 16.4605C31.9242 16.3645 31.9782 16.2343 31.9782 16.0986V13.4211C31.9782 13.1398 31.7503 12.9092 31.4663 12.9092Z" fill="#FBC11B"/>
<path id="Vector_20" d="M31.4662 13.3426C31.7862 13.3426 32.0456 13.0832 32.0456 12.7632C32.0456 12.4432 31.7862 12.1838 31.4662 12.1838C31.1463 12.1838 30.8869 12.4432 30.8869 12.7632C30.8869 13.0832 31.1463 13.3426 31.4662 13.3426Z" fill="#E49500"/>
<path id="Vector_21" d="M31.4662 13.1934C31.7862 13.1934 32.0456 12.934 32.0456 12.614C32.0456 12.2941 31.7862 12.0347 31.4662 12.0347C31.1463 12.0347 30.8869 12.2941 30.8869 12.614C30.8869 12.934 31.1463 13.1934 31.4662 13.1934Z" fill="#FBC11B"/>
<path id="Vector_22" d="M31.2131 2.65796V12.4876H31.2188C31.23 12.617 31.3369 12.7211 31.4691 12.7211C31.6013 12.7211 31.7081 12.6198 31.7194 12.4876H31.725V2.65796H31.2131Z" fill="#262626"/>
</g>
<defs>
<clipPath id="clip0_324_176">
<rect width="36" height="36" fill="white"/>
</clipPath>
</defs>
</svg>
