<svg width="24" height="24" viewBox="0 0 24 24" fill="none" xmlns="http://www.w3.org/2000/svg">
<path d="M12 15C13.6569 15 15 13.6569 15 12C15 10.3431 13.6569 9 12 9C10.3431 9 9 10.3431 9 12C9 13.6569 10.3431 15 12 15Z" fill="#F8F8F8"/>
<path d="M23.2052 11.745C22.3231 9.46324 20.7917 7.48996 18.8003 6.06906C16.8089 4.64817 14.4448 3.84193 12.0002 3.75C9.55556 3.84193 7.19146 4.64817 5.20007 6.06906C3.20868 7.48996 1.67729 9.46324 0.795169 11.745C0.735595 11.9098 0.735595 12.0902 0.795169 12.255C1.67729 14.5368 3.20868 16.51 5.20007 17.9309C7.19146 19.3518 9.55556 20.1581 12.0002 20.25C14.4448 20.1581 16.8089 19.3518 18.8003 17.9309C20.7917 16.51 22.3231 14.5368 23.2052 12.255C23.2647 12.0902 23.2647 11.9098 23.2052 11.745ZM12.0002 16.875C11.036 16.875 10.0935 16.5891 9.29177 16.0534C8.49008 15.5177 7.86523 14.7564 7.49626 13.8656C7.12728 12.9748 7.03074 11.9946 7.21884 11.0489C7.40694 10.1033 7.87124 9.23464 8.55302 8.55285C9.23481 7.87107 10.1034 7.40677 11.0491 7.21867C11.9948 7.03057 12.975 7.12711 13.8658 7.49609C14.7565 7.86506 15.5179 8.48991 16.0536 9.2916C16.5893 10.0933 16.8752 11.0358 16.8752 12C16.8732 13.2923 16.3589 14.5311 15.4451 15.445C14.5313 16.3588 13.2925 16.873 12.0002 16.875Z" fill="#F8F8F8"/>
</svg>
